<?xml version="1.0" standalone="no"?>
<!DOCTYPE svg PUBLIC "-//W3C//DTD SVG 20010904//EN"
 "http://www.w3.org/TR/2001/REC-SVG-20010904/DTD/svg10.dtd">
<svg version="1.0" xmlns="http://www.w3.org/2000/svg"
 width="1024.000000pt" height="1024.000000pt" viewBox="0 0 1024.000000 1024.000000"
 preserveAspectRatio="xMidYMid meet">

<g transform="translate(0.000000,1024.000000) scale(0.100000,-0.100000)"
fill="#000000" stroke="none">
<path d="M2265 6680 c-275 -55 -484 -311 -485 -592 l0 -57 -196 -3 -196 -3
-22 -26 c-16 -19 -25 -45 -29 -90 -25 -244 -149 -1603 -154 -1680 -4 -74 -2
-107 11 -146 22 -65 75 -127 140 -161 l51 -27 955 -3 c675 -2 970 0 1007 8 67
14 135 60 172 116 58 88 58 68 -14 849 -109 1182 -100 1104 -130 1134 l-25 26
-185 0 -185 0 0 60 c0 89 -25 190 -66 274 -46 94 -161 212 -251 259 -117 61
-277 86 -398 62z m275 -178 c110 -43 209 -142 252 -252 13 -34 23 -87 26 -140
l4 -85 -442 0 -442 0 4 87 c5 74 11 99 42 163 57 121 156 205 286 242 65 19
202 11 270 -15z m-760 -751 c0 -117 1 -120 26 -140 36 -28 79 -27 109 4 24 23
25 30 25 140 l0 115 440 0 440 0 0 -105 c0 -143 17 -175 91 -175 33 0 66 28
74 63 4 13 5 68 3 121 l-3 97 135 -3 135 -3 12 -130 c6 -71 11 -148 11 -170
-1 -55 -7 -16 -21 150 l-12 140 -122 3 -121 3 -4 -117 c-3 -113 -4 -116 -31
-140 -37 -32 -87 -32 -124 0 -27 24 -28 27 -31 140 l-4 116 -429 0 -429 0 0
-111 c0 -109 0 -111 -29 -140 -38 -38 -88 -40 -124 -4 -29 30 -36 62 -33 160
2 39 1 76 -2 83 -3 9 -39 12 -132 12 l-127 0 -7 -72 c-4 -40 -9 -91 -11 -113
-3 -22 -18 -191 -35 -375 -16 -184 -32 -360 -35 -390 -55 -564 -69 -749 -59
-776 5 -15 22 -36 37 -48 28 -21 31 -21 970 -24 882 -2 944 -1 977 15 60 31
61 46 29 403 -15 173 -30 338 -33 367 -3 28 -17 176 -31 330 -14 153 -27 294
-30 313 -3 27 -2 30 5 15 5 -11 16 -99 24 -195 9 -96 36 -395 61 -665 49 -526
49 -519 -2 -567 l-25 -23 -949 -3 c-1048 -3 -1001 -5 -1034 59 -20 37 -19 68
10 384 55 594 66 707 80 870 8 94 22 240 30 325 8 85 15 161 15 168 0 9 36 12
145 12 l145 0 0 -119z m660 -221 c15 -15 20 -33 20 -75 0 -43 3 -55 15 -55 47
0 205 -113 205 -146 0 -7 -25 -38 -55 -68 l-56 -55 -48 44 c-59 51 -107 69
-169 62 -34 -4 -53 -12 -69 -32 -50 -58 -12 -113 101 -145 208 -60 205 -59
256 -108 113 -110 102 -288 -26 -401 -27 -24 -69 -48 -100 -58 l-54 -17 0 -53
c0 -66 -22 -93 -78 -93 -63 0 -82 21 -82 89 l0 58 -37 7 c-58 9 -137 50 -187
96 l-46 42 18 30 c9 16 37 47 60 69 l44 39 36 -31 c58 -51 117 -73 195 -73 52
0 73 5 95 21 56 42 54 111 -4 145 -18 10 -71 30 -120 44 -214 62 -284 132
-284 284 0 108 64 195 177 242 l53 22 0 52 c0 43 4 56 22 68 32 23 94 20 118
-4z"/>
<path d="M4822 5133 l3 -618 115 0 115 0 5 297 c5 280 6 298 26 324 42 57 69
69 152 69 65 0 82 -4 111 -24 66 -47 71 -72 71 -389 l0 -283 116 3 115 3 -1
318 c-1 340 -4 366 -55 446 -33 52 -62 76 -129 107 -118 54 -266 41 -360 -31
l-46 -35 0 215 0 215 -120 0 -120 0 2 -617z"/>
<path d="M7970 5131 l0 -619 115 -1 115 -2 0 621 0 620 -115 0 -115 0 0 -619z"/>
<path d="M4144 5724 c-127 -30 -243 -127 -279 -233 -8 -25 -15 -77 -15 -116 0
-60 5 -82 31 -133 54 -109 133 -161 344 -224 72 -22 145 -49 163 -60 89 -55
79 -175 -18 -232 -28 -17 -52 -21 -120 -21 -102 0 -188 27 -278 85 l-60 38
-55 -89 -56 -89 37 -30 c125 -104 347 -153 525 -115 194 41 317 172 325 348 4
71 1 84 -27 142 -55 111 -146 170 -357 233 -182 54 -230 94 -221 182 8 72 79
120 177 120 79 0 231 -52 281 -97 15 -13 22 -5 69 77 60 105 64 93 -52 155
-130 69 -281 90 -414 59z"/>
<path d="M6131 5405 c-208 -59 -341 -232 -341 -444 0 -209 119 -373 318 -440
77 -26 223 -28 303 -5 151 44 278 171 315 314 22 87 15 223 -16 303 -41 109
-146 209 -270 258 -73 28 -231 36 -309 14z m246 -214 c121 -61 168 -234 102
-368 -85 -171 -340 -171 -423 -1 -96 197 24 409 225 394 30 -2 74 -13 96 -25z"/>
<path d="M7295 5406 c-50 -16 -101 -42 -142 -74 l-33 -24 0 51 0 51 -115 0
-115 0 0 -610 0 -610 118 0 117 0 -3 210 -3 210 45 -34 c73 -56 126 -71 246
-71 93 0 112 3 162 27 161 75 248 226 248 429 0 179 -68 315 -200 399 -89 56
-230 76 -325 46z m162 -207 c124 -60 170 -238 99 -383 -39 -80 -86 -110 -182
-114 -120 -7 -181 23 -229 110 -27 47 -30 62 -30 143 0 81 3 95 29 142 29 53
81 97 132 113 54 16 135 11 181 -11z"/>
<path d="M8986 5378 c-8 -18 -58 -152 -111 -298 -54 -146 -101 -268 -104 -272
-4 -5 -35 72 -70 170 -35 97 -83 232 -108 300 l-45 122 -133 0 -132 0 87 -202
c139 -324 270 -655 270 -680 0 -39 -43 -111 -80 -136 -30 -20 -45 -23 -102
-20 l-68 4 0 -98 0 -97 36 -7 c63 -12 172 3 229 31 64 31 126 96 160 167 19
39 400 952 432 1036 4 9 -24 12 -121 12 l-127 0 -13 -32z"/>
</g>
</svg>
